<?xml version="1.0" encoding="utf-8"?>
<!-- Generator: Adobe Illustrator 26.0.0, SVG Export Plug-In . SVG Version: 6.00 Build 0)  -->
<svg version="1.1" id="identificador" xmlns="http://www.w3.org/2000/svg" xmlns:xlink="http://www.w3.org/1999/xlink" x="0px"
	 y="0px" viewBox="0 0 750 1334" style="enable-background:new 0 0 750 1334;" xml:space="preserve">
<style type="text/css">
	.st0{fill:#561FDC;}
	.st1{fill:#1A1732;}
</style>
<g id="RIO">
	<path class="st0" d="M220.96,789.11h-0.71h-19.12v27.9h-25.21v-99.13h44.32c26.2,0,41.21,12.46,41.21,34.55
		c0,15.15-6.37,26.06-17.98,31.86l20.82,32.71h-28.6L220.96,789.11z M220.25,769.28c10.9,0,17.28-5.52,17.28-16
		c0-10.34-6.37-15.58-17.28-15.58h-19.12v31.58H220.25z"/>
	<path class="st0" d="M303.51,731.34c0,7.65-5.38,13.03-12.89,13.03c-7.51,0-12.89-5.38-12.89-13.03c0-7.51,5.38-12.89,12.89-12.89
		C298.13,718.46,303.51,723.84,303.51,731.34z M278.31,817.01v-63.71h24.36v63.71H278.31z"/>
	<path class="st0" d="M399.61,778.66c0,23.57-16.76,39.19-41.75,39.19c-25.13,0-41.89-15.62-41.89-39.19
		c0-23.57,16.76-39.05,41.89-39.05C382.86,739.61,399.61,755.09,399.61,778.66z M340.68,778.95c0,11.93,6.96,19.88,17.18,19.88
		c10.08,0,17.04-7.95,17.04-19.88c0-11.79-6.96-19.88-17.04-19.88C347.64,759.07,340.68,767.16,340.68,778.95z"/>
</g>
<g id="tv">
	<path class="st1" d="M479.5,723.83v93.18h-5.95v-93.18h-33.42v-5.81h72.79v5.81H479.5z"/>
	<path class="st1" d="M536.84,817.01l-31.28-77.41h6.37l28.02,71.04l27.88-71.04h6.23l-31.14,77.41H536.84z"/>
</g>
<g id="imagen">
	<g>
		<g>
			<g>
				<g>
					<g>
						<path class="st1" d="M481.09,609.32h-0.1c0,0-18.82-24.4-25.78-49.62c3.52-8.8,5.3-18.09,5.3-27.65
							c0-10.06-1.98-19.83-5.87-29.04c-3.76-8.88-9.13-16.86-15.98-23.7c-6.84-6.84-14.82-12.22-23.71-15.98
							c-7.8-3.3-16.01-5.22-24.46-5.73v-15.09c2.11-1.42,3.5-3.84,3.5-6.58c0-4.38-3.55-7.93-7.93-7.93s-7.93,3.55-7.93,7.93
							c0,2.74,1.39,5.16,3.5,6.58v15.07c-8.55,0.48-16.86,2.41-24.75,5.75c-8.88,3.76-16.86,9.13-23.71,15.98
							c-6.84,6.84-12.22,14.82-15.98,23.7c-3.89,9.21-5.87,18.97-5.87,29.04c0,9.71,1.84,19.15,5.47,28.08
							c-7.06,25.06-25.66,49.19-25.66,49.19h-0.1c-5.18,0-9.38,4.2-9.38,9.38c0,4.72,3.49,8.63,8.04,9.28
							c3.88,9.95,15.25,37.24,30.49,56.96c-0.27-0.55-17.7-35.54-21.61-60.67c1.16-1.56,1.84-3.48,1.84-5.57
							c0-0.89-0.12-1.75-0.36-2.57c9.75-10.19,36.7-27.8,36.7-27.8l-0.12-0.28c6.02,5.31,12.82,9.59,20.24,12.73
							c9.2,3.89,18.97,5.87,29.04,5.87c10.06,0,19.83-1.97,29.04-5.87c7.61-3.22,14.56-7.63,20.7-13.13l-0.28,0.69
							c0,0,26.95,17.6,36.7,27.8c-0.23,0.81-0.36,1.68-0.36,2.57c0,2.09,0.68,4.01,1.84,5.57c-3.91,25.13-21.34,60.12-21.61,60.67
							c15.24-19.71,26.61-47.01,30.49-56.96c4.55-0.65,8.04-4.56,8.04-9.28C490.47,613.52,486.27,609.32,481.09,609.32z
							 M385.92,576.15c-24.31,0-44.09-19.78-44.09-44.09s19.78-44.09,44.09-44.09s44.09,19.78,44.09,44.09
							S410.23,576.15,385.92,576.15z"/>
					</g>
				</g>
			</g>
		</g>
		<g>
			<path class="st1" d="M393.07,511.86c13.66,0,24.73,11.07,24.73,24.73c0,13.66-11.07,24.73-24.73,24.73s-24.73-11.07-24.73-24.73
				h24.73V511.86z"/>
		</g>
	</g>
</g>
</svg>
